<svg xmlns="http://www.w3.org/2000/svg" viewBox="0 40.29999923706055 53.20000076293945 74.64599609375" data-asc="1.133" width="53.20000076293945" height="74.64599609375"><defs/><g fill="#000000"><g transform="translate(0, 0)"><path d="M0 56.65L0 48.35L7.20 48.35L7.20 56.65L0 56.65ZM12.80 56.65L12.80 48.35L20 48.35L20 56.65L12.80 56.65ZM25.60 46.40L25.60 40.30L40.40 40.30L40.40 46.40L25.60 46.40Z"/></g><g transform="translate(0, 19.432000000000002)"><path d="M0 56.65L0 48.35L7.20 48.35L7.20 56.65L0 56.65ZM12.80 56.65L12.80 48.35L20 48.35L20 56.65L12.80 56.65ZM25.60 56.65L25.60 48.35L32.80 48.35L32.80 56.65L25.60 56.65Z"/></g><g transform="translate(0, 38.864000000000004)"><path d="M0 56.65L0 48.35L7.20 48.35L7.20 56.65L0 56.65ZM12.80 56.65L12.80 48.35L20 48.35L20 56.65L12.80 56.65Z"/></g><g transform="translate(0, 58.29600000000001)"><path d="M0 56.65L0 48.35L7.20 48.35L7.20 56.65L0 56.65ZM12.80 56.65L12.80 48.35L20 48.35L20 56.65L12.80 56.65ZM25.60 46.40L25.60 40.30L40.40 40.30L40.40 46.40L25.60 46.40ZM46 56.65L46 48.35L53.20 48.35L53.20 56.65L46 56.65Z"/></g></g></svg>