<svg xmlns="http://www.w3.org/2000/svg" viewBox="0 40.70000076293945 50.04999923706055 84.656005859375" data-asc="1.133" width="50.04999923706055" height="84.656005859375"><defs/><g fill="#000000"><g transform="translate(0, 0)"><path d="M0 56.65L0 49.45L5.85 49.45L5.85 56.65L0 56.65ZM11.95 56.65L11.95 49.45L17.80 49.45L17.80 56.65L11.95 56.65ZM23.15 45.65L23.15 40.70L38.10 40.70L38.10 45.65L23.15 45.65Z"/></g><g transform="translate(0, 22.902000000000005)"><path d="M0 56.65L0 49.45L5.85 49.45L5.85 56.65L0 56.65ZM11.95 56.65L11.95 49.45L17.80 49.45L17.80 56.65L11.95 56.65ZM23.90 56.65L23.90 49.45L29.75 49.45L29.75 56.65L23.90 56.65Z"/></g><g transform="translate(0, 45.80400000000001)"><path d="M0 56.65L0 49.45L5.85 49.45L5.85 56.65L0 56.65ZM11.95 56.65L11.95 49.45L17.80 49.45L17.80 56.65L11.95 56.65Z"/></g><g transform="translate(0, 68.70600000000002)"><path d="M0 56.65L0 49.45L5.85 49.45L5.85 56.65L0 56.65ZM11.95 56.65L11.95 49.45L17.80 49.45L17.80 56.65L11.95 56.65ZM23.15 45.65L23.15 40.70L38.10 40.70L38.10 45.65L23.15 45.65ZM44.20 56.65L44.20 49.45L50.05 49.45L50.05 56.65L44.20 56.65Z"/></g></g></svg>